<?xml version="1.0" encoding="UTF-8"?>
<svg version="1.1" xmlns="http://www.w3.org/2000/svg" width="128" height="128">
<path d="M0 0 C4.32635448 1.62897068 8.25313164 3.72622958 12.24121094 6.02978516 C15.11624938 7.61576555 18.13632974 8.8936035 21.125 10.25 C36.36335491 17.91193378 45.1903905 30.24827109 51.0546875 46.0546875 C52.95414093 51.97281925 53.2264968 57.44767124 53.25 63.625 C53.25394775 64.51638672 53.25789551 65.40777344 53.26196289 66.32617188 C53.21011154 72.19766879 52.58883782 77.34789289 50.55859375 82.90625 C49.89242213 85.40322893 50.07818241 86.60134375 51 89 C52.13457648 90.84178636 52.13457648 90.84178636 53.5 92.5625 C58.18507186 98.67760832 57.58031526 105.57364676 57 113 C55.32857442 119.07887902 49.94553009 123.40509722 45 127 C38.84172471 129.05275843 31.25841636 129.19624053 25.1484375 126.953125 C22.04117728 125.2324923 19.51317427 123.51317427 17 121 C14.93598487 121.16449887 14.93598487 121.16449887 12.6875 121.8125 C11.92824219 122.00457031 11.16898437 122.19664063 10.38671875 122.39453125 C9.59910156 122.59433594 8.81148438 122.79414062 8 123 C-5.16220632 126.30802353 -19.36347567 124.28875977 -32 120 C-32.495 121.485 -32.495 121.485 -33 123 C-38.7683883 128.08133461 -45.17612562 128.77762498 -52.62109375 128.48046875 C-58.44192305 127.65276701 -62.66149822 125.57516943 -66.62109375 121.21484375 C-71.79221218 114.31513615 -71.94934749 107.34917212 -71 99 C-69.64435933 95.48380701 -68.07727315 92.30813309 -66.21484375 89.03515625 C-64.43491911 84.58820626 -65.48480528 81.20061744 -66.546875 76.6640625 C-68.37691447 65.9046925 -68.19453841 53.11800841 -64 43 C-63.54753906 41.89527344 -63.09507813 40.79054687 -62.62890625 39.65234375 C-54.69362769 22.16428381 -41.76919589 12.47176414 -24.140625 5.35546875 C-21.6212849 4.26814162 -19.69872629 3.20741665 -17.5 1.625 C-11.71420968 -1.06125979 -6.24742082 -0.96414836 0 0 Z M-41 31 C-46.88347203 37.63264079 -50.56190704 44.50111099 -53 53 C-53.19335938 53.61875 -53.38671875 54.2375 -53.5859375 54.875 C-54.18461317 57.94744874 -54.17105903 60.93542656 -54.1875 64.0625 C-54.20167969 65.29097656 -54.21585938 66.51945312 -54.23046875 67.78515625 C-54.25500575 71.15242422 -54.25500575 71.15242422 -52 74 C-51.34 74 -50.68 74 -50 74 C-49.67 74.66 -49.34 75.32 -49 76 C-49 75.34 -49 74.68 -49 74 C-42.375 73.75 -42.375 73.75 -39 76 C-38.32845067 74.71086513 -37.66291141 73.41859796 -37 72.125 C-36.62875 71.40570313 -36.2575 70.68640625 -35.875 69.9453125 C-34.86326254 68.05151023 -34.86326254 68.05151023 -35 66 C-32.66705225 65.95758277 -30.33297433 65.95907063 -28 66 C-27 67 -27 67 -26.71484375 69.64453125 C-27.06542595 73.76987525 -28.45808435 76.14170376 -30.5625 79.6875 C-32.55434709 82.95259953 -32.55434709 82.95259953 -34 86 C-33.67 86.99 -33.34 87.98 -33 89 C-31.9578443 87.81292916 -30.91630907 86.62531359 -29.875 85.4375 C-29.23433594 84.71433594 -28.59367187 83.99117187 -27.93359375 83.24609375 C-26.71856621 81.83469812 -25.53773247 80.39235104 -24.41015625 78.91015625 C-20.70687688 74.1066984 -20.70687688 74.1066984 -16.6875 73.5 C-14 74 -14 74 -13 75 C-12.62890625 77.21484375 -12.62890625 77.21484375 -13 80 C-15.15234375 82.75390625 -15.15234375 82.75390625 -17.9375 85.5625 C-22.27105473 89.60089027 -22.27105473 89.60089027 -24 95 C-23.505 95.99 -23.505 95.99 -23 97 C-22.85603229 100.88712811 -22.96205702 104.2601102 -24 108 C-15.61869103 111.24437767 -5.76966509 113.01590708 2.91796875 109.98046875 C3.60503906 109.65691406 4.29210937 109.33335938 5 109 C4.34 108.113125 3.68 107.22625 3 106.3125 C1.01139933 103.01888014 0.56264926 101.71748127 1 98 C1.61875 97.814375 2.2375 97.62875 2.875 97.4375 C6.04162301 95.29537267 6.09921668 92.60313326 7 89 C7.66 88.34 8.32 87.68 9 87 C9.16681109 83.91652174 9.16681109 83.91652174 9 81 C10.0725 80.7525 11.145 80.505 12.25 80.25 C15.99649437 79.00116854 17.52073882 77.97511342 20 75 C21.093125 75.37125 22.18625 75.7425 23.3125 76.125 C24.529375 76.41375 25.74625 76.7025 27 77 C27.99 76.34 28.98 75.68 30 75 C32.73990408 75.03143293 35.28417854 75.55478337 38 76 C42.18536651 66.58292535 40.38825392 55.40049396 37 46 C32.12732085 35.81167087 25.61489815 28.71309551 16 23 C15.98018066 23.80219971 15.96036133 24.60439941 15.93994141 25.4309082 C15.84480505 29.05844177 15.7350792 32.68539045 15.625 36.3125 C15.5940625 37.57513672 15.563125 38.83777344 15.53125 40.13867188 C15.49257812 41.34716797 15.45390625 42.55566406 15.4140625 43.80078125 C15.36693115 45.47394409 15.36693115 45.47394409 15.31884766 47.1809082 C15 50 15 50 13 53 C9.875 53.1875 9.875 53.1875 7 53 C6.7215625 53.9590625 6.7215625 53.9590625 6.4375 54.9375 C5 57 5 57 1.375 57.75 C0.26125 57.8325 -0.8525 57.915 -2 58 C-2.33 59.32 -2.66 60.64 -3 62 C-5.64 62 -8.28 62 -11 62 C-11.33 60.35 -11.66 58.7 -12 57 C-12.763125 57.226875 -13.52625 57.45375 -14.3125 57.6875 C-17 58 -17 58 -18.6484375 56.86328125 C-20.47375732 54.34687213 -20.30007995 52.58017202 -20.3125 49.5 C-20.41998913 46.58244186 -20.41998913 46.58244186 -21 44 C-23.85065729 42.03271039 -23.85065729 42.03271039 -27 41 C-29.06474478 37.15747496 -29.36389043 33.49580784 -29.625 29.1875 C-29.69976562 28.02605469 -29.77453125 26.86460938 -29.8515625 25.66796875 C-29.90054688 24.78753906 -29.94953125 23.90710938 -30 23 C-33.64157888 23 -38.47674647 28.69885103 -41 31 Z " fill="#FEE4C1" transform="translate(71,0)"/>
<path d="M0 0 C-0.52400391 0.85271484 -0.52400391 0.85271484 -1.05859375 1.72265625 C-4.13532945 6.79933122 -4.13532945 6.79933122 -5.125 12.5625 C-6.41622257 17.63516011 -9.85682738 18.93734534 -14.0703125 21.77734375 C-22.09010984 27.86169666 -26.278491 36.51315788 -29 46 C-29.28810547 46.928125 -29.28810547 46.928125 -29.58203125 47.875 C-30.18608442 50.94607406 -30.21054288 53.93552327 -30.25 57.0625 C-30.27578125 58.29097656 -30.3015625 59.51945312 -30.328125 60.78515625 C-30.25196871 63.93368807 -30.25196871 63.93368807 -28.73828125 65.9609375 C-26.49379725 67.30258411 -25.46636002 67.09663305 -22.9375 66.5625 C-21.638125 66.376875 -20.33875 66.19125 -19 66 C-18.34 66.66 -17.68 67.32 -17 68 C-16.72027344 67.36191406 -16.44054687 66.72382812 -16.15234375 66.06640625 C-14.91877804 63.5239123 -13.70520728 61.25664247 -12 59 C-8.3125 57.8125 -8.3125 57.8125 -5 58 C-3 60 -3 60 -2.65625 62.6640625 C-3.07646155 66.74202458 -4.58163118 69.82712871 -6.5 73.375 C-7.00080078 74.33599609 -7.00080078 74.33599609 -7.51171875 75.31640625 C-8.33026451 76.88333671 -9.16364513 78.44250241 -10 80 C-6.4052076 76.50092692 -2.99980328 73.04268199 0.0625 69.0625 C2.28227022 66.40829754 2.65769495 66.0592451 6.25 65.4375 C9 66 9 66 11 68 C11.43359375 70.27734375 11.43359375 70.27734375 11 73 C8.84765625 75.75390625 8.84765625 75.75390625 6.0625 78.5625 C1.72894527 82.60089027 1.72894527 82.60089027 0 88 C0.33 88.66 0.66 89.32 1 90 C1.2426639 94.36795019 1.12232587 97.19155753 -1 101 C7.94061263 103.30725487 17.5171951 104.25423642 26.5859375 102.1796875 C30 102 30 102 32.87109375 104.08984375 C33.71800781 105.02957031 34.56492187 105.96929687 35.4375 106.9375 C36.30246094 107.87464844 37.16742188 108.81179687 38.05859375 109.77734375 C38.69925781 110.51082031 39.33992188 111.24429688 40 112 C29.95988782 118.69340812 15.21022251 118.57613157 3.62890625 116.59423828 C-0.66387943 115.64844906 -4.83612708 114.41319323 -9 113 C-9.495 114.485 -9.495 114.485 -10 116 C-15.7683883 121.08133461 -22.17612562 121.77762498 -29.62109375 121.48046875 C-35.44192305 120.65276701 -39.66149822 118.57516943 -43.62109375 114.21484375 C-48.79221218 107.31513615 -48.94934749 100.34917212 -48 92 C-46.64435933 88.48380701 -45.07727315 85.30813309 -43.21484375 82.03515625 C-41.43491911 77.58820626 -42.48480528 74.20061744 -43.546875 69.6640625 C-45.37691447 58.9046925 -45.19453841 46.11800841 -41 36 C-40.54753906 34.89527344 -40.09507813 33.79054687 -39.62890625 32.65234375 C-32.31085805 16.52455886 -20.50415411 6.08164835 -3.99609375 -0.46875 C-2 -1 -2 -1 0 0 Z " fill="#FEE4C1" transform="translate(48,7)"/>
<path d="M0 0 C1.175625 0.309375 2.35125 0.61875 3.5625 0.9375 C4.5525 0.2775 5.5425 -0.3825 6.5625 -1.0625 C9.649057 -1.30942456 10.8268105 -1.32755873 13.5625 -0.0625 C16.05824246 2.29868938 18.22712126 4.81008019 20.42578125 7.44921875 C22.16243371 9.47160927 23.68207386 10.95010129 25.8125 12.5 C30.61437035 16.75620326 33.17497451 20.96197816 34.01171875 27.38671875 C34.22870357 34.42750213 34.06485033 39.42212084 29.5625 44.9375 C23.84114702 50.63582942 20.1787982 53.07908633 11.9375 53.3125 C3.29426334 53.18839199 -1.15211873 51.27896175 -7.18359375 45.14453125 C-9.11351434 43.06708827 -10.98433141 40.94518484 -12.84375 38.8046875 C-14.9901251 36.43203791 -17.0289686 34.5459152 -19.5625 32.625 C-22.4375 29.9375 -22.4375 29.9375 -23.5 26.1875 C-23.4375 22.9375 -23.4375 22.9375 -21.4375 20.9375 C-20.4475 20.9375 -19.4575 20.9375 -18.4375 20.9375 C-18.499375 20.009375 -18.56125 19.08125 -18.625 18.125 C-18.40608305 14.40341186 -17.89051875 14.39051875 -15.4375 11.9375 C-15.39669217 9.93791636 -15.39495644 7.93704746 -15.4375 5.9375 C-13.4375 3.9375 -13.4375 3.9375 -10.3125 3.8125 C-9.36375 3.85375 -8.415 3.895 -7.4375 3.9375 C-7.14875 3.298125 -6.86 2.65875 -6.5625 2 C-4.64737873 -1.51105566 -3.82868666 -1.18341224 0 0 Z " fill="#F6AA6E" transform="translate(94.4375,75.0625)"/>
<path d="M0 0 C14.90097829 3.61427984 27.01291861 12.50087067 35.46875 25.32421875 C41.30928325 35.53025262 44.39316483 45.91322779 44.375 57.625 C44.37693359 58.9258252 44.37693359 58.9258252 44.37890625 60.25292969 C44.25306367 68.00082874 42.70230963 74.7134151 40 82 C38.26366069 80.53679271 36.53787695 79.0646079 34.828125 77.5703125 C33.4293266 76.36878054 31.97519567 75.23139675 30.5 74.125 C29 72 29 72 29.25 68.5 C29.37375 67.80390625 29.4975 67.1078125 29.625 66.390625 C31.90281075 51.8695815 27.97924043 39.75154982 19.59375 28.03515625 C16.82988068 24.5265777 14.10533718 22.38268545 10.25 20.125 C6.26059728 17.62080063 6.26059728 17.62080063 5.12109375 14.90625 C4.83233642 13.38702226 4.58986736 11.85825836 4.39453125 10.32421875 C3.74012593 6.4690587 1.86071011 3.41130186 0 0 Z " fill="#9EE79E" transform="translate(80,6)"/>
<path d="M0 0 C-0.52400391 0.85271484 -0.52400391 0.85271484 -1.05859375 1.72265625 C-4.13532945 6.79933122 -4.13532945 6.79933122 -5.125 12.5625 C-6.41622257 17.63516011 -9.85682738 18.93734534 -14.0703125 21.77734375 C-22.09010984 27.86169666 -26.278491 36.51315788 -29 46 C-29.20238281 46.598125 -29.40476562 47.19625 -29.61328125 47.8125 C-30.33226809 51.87949628 -29.87452802 56.1305861 -29.609375 60.24414062 C-29.546875 62.34765625 -29.546875 62.34765625 -30 66 C-32.33984375 67.703125 -32.33984375 67.703125 -35 69 C-36.6337717 71.22293946 -36.6337717 71.22293946 -37.8125 73.6875 C-38.44091797 74.89986328 -38.44091797 74.89986328 -39.08203125 76.13671875 C-39.38496094 76.75160156 -39.68789063 77.36648437 -40 78 C-46.24060165 68.63909752 -44.98559197 54.46361918 -43.5703125 43.74609375 C-42.91459425 41.03012494 -42.07003867 38.58113272 -41 36 C-40.54753906 34.89527344 -40.09507813 33.79054687 -39.62890625 32.65234375 C-32.31085805 16.52455886 -20.50415411 6.08164835 -3.99609375 -0.46875 C-2 -1 -2 -1 0 0 Z " fill="#C8F5B0" transform="translate(48,7)"/>
<path d="M0 0 C6.00143843 4.18984543 12.16165506 10.72429679 14 18 C14.94163855 25.39286439 14.57306589 31.91201754 10 38 C5.27353221 42.72646779 0.38170676 45.93851442 -6.4375 46.0625 C-14.16894604 43.75663013 -18.75699167 38.62970052 -23 32 C-22.05125 31.731875 -21.1025 31.46375 -20.125 31.1875 C-16.74732727 30.25013412 -16.74732727 30.25013412 -15 27 C-12.375 26.3125 -12.375 26.3125 -10 26 C-9.67 24.35 -9.34 22.7 -9 21 C-7.02 20.34 -5.04 19.68 -3 19 C-3 17.35 -3 15.7 -3 14 C-1.35 13.34 0.3 12.68 2 12 C1.34 10.02 0.68 8.04 0 6 C-2.97 5.505 -2.97 5.505 -6 5 C-5.34 6.65 -4.68 8.3 -4 10 C-5.98 10 -7.96 10 -10 10 C-10 11.32 -10 12.64 -10 14 C-10 15.32 -10 16.64 -10 18 C-14.41889613 16.64978174 -16.34345343 14.73884332 -19 11 C-18.20335938 10.31164062 -18.20335938 10.31164062 -17.390625 9.609375 C-16.68421875 8.99578125 -15.9778125 8.3821875 -15.25 7.75 C-14.51394531 7.11449219 -13.77789062 6.47898437 -13.01953125 5.82421875 C-10.8980718 3.98953403 -10.8980718 3.98953403 -8.9375 1.5625 C-5.95831552 -0.84006813 -3.72738437 -0.38138849 0 0 Z " fill="#FEBC85" transform="translate(106,82)"/>
<path d="M0 0 C0.94746094 0.2165625 0.94746094 0.2165625 1.9140625 0.4375 C10.63360826 2.24674292 19.82536746 3.18503035 28.58203125 1.1796875 C32 1 32 1 34.87109375 3.08984375 C35.71800781 4.02957031 36.56492188 4.96929687 37.4375 5.9375 C38.30246094 6.87464844 39.16742188 7.81179687 40.05859375 8.77734375 C40.69925781 9.51082031 41.33992188 10.24429688 42 11 C32.0326419 17.6449054 17.23425434 17.64847806 5.72705078 15.59423828 C1.72280504 14.66043459 -2.14308901 13.43037758 -6 12 C-4.57271181 7.40953257 -2.80273303 3.92382624 0 0 Z " fill="#C9F5B0" transform="translate(46,108)"/>
<path d="M0 0 C13.45125128 6.01154687 21.88424977 17.01717887 28 30 C29.25876639 33.29823111 30.25359975 36.55175423 31 40 C31.18304688 40.76828125 31.36609375 41.5365625 31.5546875 42.328125 C33.08060508 51.48363048 32.35636967 61.05841866 30 70 C26.1015625 68.2265625 26.1015625 68.2265625 25.1875 66.1875 C25 64 25 64 25.47265625 61.7109375 C27.82913535 49.59688937 25.29267733 37.50793096 18.59375 27.24609375 C14.90752575 22.05104732 11.88289876 18.42186011 6.25 15.3125 C3.11993386 13.39237539 2.16459586 12.49126502 0.98046875 8.95703125 C0.49197624 5.95930385 0.15210327 3.03225233 0 0 Z " fill="#C8F5B0" transform="translate(84,11)"/>
<path d="M0 0 C0 1.32 0 2.64 0 4 C-2.125 5.75390625 -2.125 5.75390625 -5 7.5625 C-14.61846922 14.24715042 -19.80191986 22.85189012 -23 34 C-23.20238281 34.598125 -23.40476562 35.19625 -23.61328125 35.8125 C-24.33226809 39.87949628 -23.87452802 44.1305861 -23.609375 48.24414062 C-23.546875 50.34765625 -23.546875 50.34765625 -24 54 C-26.84635667 56.44041654 -28.25097697 57 -32 57 C-35.18883369 45.39090424 -33.73975101 32.48191306 -28 22 C-25.90212109 18.7460453 -23.59969516 15.86416631 -21 13 C-20.46632813 12.37480469 -19.93265625 11.74960937 -19.3828125 11.10546875 C-14.60483661 5.85883972 -7.33364841 0 0 0 Z " fill="#9EE79E" transform="translate(42,19)"/>
<path d="M0 0 C1.32 0.66 2.64 1.32 4 2 C4.30859375 4.15234375 4.30859375 4.15234375 4 7 C1.84765625 9.75390625 1.84765625 9.75390625 -0.9375 12.5625 C-5.27105473 16.60089027 -5.27105473 16.60089027 -7 22 C-6.505 22.99 -6.505 22.99 -6 24 C-5.45588054 29.75211997 -6.81577543 33.34913423 -9.8125 38.125 C-10.16892578 38.71925781 -10.52535156 39.31351563 -10.89257812 39.92578125 C-11.91494338 41.62534624 -12.95707462 43.31297347 -14 45 C-14.50273438 45.90878906 -15.00546875 46.81757812 -15.5234375 47.75390625 C-18.14485714 51.74151549 -21.54472049 53.47549793 -26 55 C-32.74389347 55.96231357 -38.94977982 56.18352942 -44.875 52.5 C-45.94058017 51.697471 -46.99336814 50.87533205 -48 50 C-47.01 49.505 -47.01 49.505 -46 49 C-45.01 49.33 -44.02 49.66 -43 50 C-32.97730265 50.79295069 -32.97730265 50.79295069 -24 47 C-19.82747389 43.25018078 -17.29419241 39.46985575 -14.75 34.5625 C-14.399375 33.91990234 -14.04875 33.27730469 -13.6875 32.61523438 C-11.64653144 28.74916893 -10.46353625 25.41041113 -10 21 C-12.61527381 23.36620011 -14.26440562 25.942048 -16 29 C-17.32 28.67 -18.64 28.34 -20 28 C-18.49746366 22.62195614 -14.84770906 19.32987373 -11.0625 15.4375 C-9.80165974 14.12535393 -8.54248978 12.81160044 -7.28515625 11.49609375 C-6.44803101 10.63262329 -6.44803101 10.63262329 -5.59399414 9.75170898 C-2.78358777 6.66323208 -0.74457084 4.16959668 0 0 Z " fill="#FDD4A7" transform="translate(55,73)"/>
<path d="M0 0 C6.41350742 -0.68228802 10.95477986 0.93921306 16 5 C23.36130852 14.21500365 23.34291127 25.54208399 23.3125 36.8125 C23.32861328 38.02615234 23.34472656 39.23980469 23.36132812 40.49023438 C23.36197266 41.65490234 23.36261719 42.81957031 23.36328125 44.01953125 C23.36626221 45.07245361 23.36924316 46.12537598 23.37231445 47.21020508 C22.95061344 50.37005919 22.2437085 51.76095271 20 54 C17.3125 54.25 17.3125 54.25 15 54 C15.33 53.01 15.66 52.02 16 51 C16.29972665 46.12549815 16.35613701 41.25219286 16.4050293 36.36938477 C16.42651203 34.76044116 16.46049888 33.15161131 16.50756836 31.54321289 C16.78894717 21.82512962 17.01408643 13.59197203 10 6 C7.38619937 3.86652683 7.38619937 3.86652683 4.625 2.875 C3.75101562 2.50117187 2.87703125 2.12734375 1.9765625 1.7421875 C1.32429688 1.49726563 0.67203125 1.25234375 0 1 C0 0.67 0 0.34 0 0 Z " fill="#FDD7A8" transform="translate(64,0)"/>
<path d="M0 0 C5.53846154 0.49230769 5.53846154 0.49230769 7.875 3.0625 C8.431875 4.0215625 8.431875 4.0215625 9 5 C8.34 6.32 7.68 7.64 7 9 C5.68 9 4.36 9 3 9 C3.20625 9.78375 3.4125 10.5675 3.625 11.375 C3.74875 12.24125 3.8725 13.1075 4 14 C2 16 2 16 -0.625 16.125 C-1.40875 16.08375 -2.1925 16.0425 -3 16 C-2.95875 16.78375 -2.9175 17.5675 -2.875 18.375 C-3 21 -3 21 -5 23 C-6.32 23 -7.64 23 -9 23 C-9.45375 23.66 -9.9075 24.32 -10.375 25 C-10.91125 25.66 -11.4475 26.32 -12 27 C-15.1875 27.25 -15.1875 27.25 -18 27 C-18.33 26.01 -18.66 25.02 -19 24 C-18.38125 23.7525 -17.7625 23.505 -17.125 23.25 C-14.64931313 21.79371361 -14.04874998 20.62187494 -13 18 C-11.35 18 -9.7 18 -8 18 C-7.34 16.35 -6.68 14.7 -6 13 C-5.34 13 -4.68 13 -4 13 C-4.66 10.69 -5.32 8.38 -6 6 C-3.64561267 4.57055055 -2.51967567 3.91338739 0.25 4.375 C0.8275 4.58125 1.405 4.7875 2 5 C1.34 3.35 0.68 1.7 0 0 Z " fill="#EB9C5A" transform="translate(100,87)"/>
<path d="M0 0 C1.73707474 1.46382703 3.46311136 2.93668902 5.171875 4.43359375 C7.06596561 6.09934865 7.06596561 6.09934865 9.5 7.8125 C11.63524023 10.926392 11.32076491 13.28266056 10.76171875 16.9375 C10 19 10 19 6.9375 21.0625 C5.4834375 21.5265625 5.4834375 21.5265625 4 22 C-3.61940835 16.28978281 -3.61940835 16.28978281 -5.125 11.1875 C-5 8 -5 8 -3 6 C-2.01 6 -1.02 6 0 6 C0 4.02 0 2.04 0 0 Z " fill="#F6AA6E" transform="translate(76,90)"/>
<path d="M0 0 C0.99 0.33 1.98 0.66 3 1 C3 7.93 3 14.86 3 22 C1.35 22.66 -0.3 23.32 -2 24 C-3.41544949 19.75365154 -2.92652486 15.86764573 -2.6875 11.4375 C-2.65205078 10.56158203 -2.61660156 9.68566406 -2.58007812 8.78320312 C-2.53689453 7.94595703 -2.49371094 7.10871094 -2.44921875 6.24609375 C-2.41143311 5.47966553 -2.37364746 4.7132373 -2.3347168 3.92358398 C-2 2 -2 2 0 0 Z " fill="#FED4A7" transform="translate(74,35)"/>
<path d="M0 0 C0.99 0.33 1.98 0.66 3 1 C3 9.58 3 18.16 3 27 C1.02 27.33 -0.96 27.66 -3 28 C-2.505 26.515 -2.505 26.515 -2 25 C-1.86260826 23.16681177 -1.77535202 21.32964547 -1.71875 19.4921875 C-1.68136719 18.42355469 -1.64398438 17.35492188 -1.60546875 16.25390625 C-1.53491263 13.99349717 -1.4646018 11.73308043 -1.39453125 9.47265625 C-1.35714844 8.40660156 -1.31976563 7.34054688 -1.28125 6.2421875 C-1.25095703 5.2610498 -1.22066406 4.27991211 -1.18945312 3.26904297 C-1 1 -1 1 0 0 Z " fill="#FED2A4" transform="translate(65,35)"/>
<path d="M0 0 C1.32 0.66 2.64 1.32 4 2 C4.10806144 4.91765891 4.18732877 7.83131125 4.25 10.75 C4.28351562 11.575 4.31703125 12.4 4.3515625 13.25 C4.45112665 19.42297754 4.45112665 19.42297754 1.984375 22.578125 C1.32953125 23.04734375 0.6746875 23.5165625 0 24 C-0.99 23.67 -1.98 23.34 -3 23 C-2.505 21.515 -2.505 21.515 -2 20 C-1.86555121 18.5318053 -1.77641467 17.05914724 -1.71875 15.5859375 C-1.68136719 14.74289063 -1.64398438 13.89984375 -1.60546875 13.03125 C-1.53484654 11.25261644 -1.46453674 9.47397044 -1.39453125 7.6953125 C-1.35714844 6.85484375 -1.31976563 6.014375 -1.28125 5.1484375 C-1.25095703 4.37677246 -1.22066406 3.60510742 -1.18945312 2.81005859 C-1 1 -1 1 0 0 Z " fill="#FED3A6" transform="translate(56,35)"/>
<path d="M0 0 C1.32 0.66 2.64 1.32 4 2 C4.55423996 7.62899961 2.85405659 10.7564422 0 15.375 C-0.3815625 16.01566406 -0.763125 16.65632813 -1.15625 17.31640625 C-2.09250152 18.88462755 -3.04467157 20.44332645 -4 22 C-4.66 22 -5.32 22 -6 22 C-6.90143255 18.4823408 -7.24384079 16.58214969 -5.8203125 13.18359375 C-4.98113281 11.82427734 -4.98113281 11.82427734 -4.125 10.4375 C-1.97153789 6.90682375 -0.58039515 4.11485278 0 0 Z " fill="#FED5AA" transform="translate(41,65)"/>
<path d="M0 0 C0.99 0 1.98 0 3 0 C3.125 2.875 3.125 2.875 3 6 C2.34 6.66 1.68 7.32 1 8 C-0.32 8 -1.64 8 -3 8 C-3.45375 8.66 -3.9075 9.32 -4.375 10 C-4.91125 10.66 -5.4475 11.32 -6 12 C-9.1875 12.25 -9.1875 12.25 -12 12 C-12.33 11.01 -12.66 10.02 -13 9 C-12.38125 8.7525 -11.7625 8.505 -11.125 8.25 C-8.64931313 6.79371361 -8.04874998 5.62187494 -7 3 C-6.21625 3.061875 -5.4325 3.12375 -4.625 3.1875 C-3.75875 3.125625 -2.8925 3.06375 -2 3 C-1.34 2.01 -0.68 1.02 0 0 Z " fill="#EB9D5A" transform="translate(94,102)"/>
<path d="M0 0 C0.99 0.33 1.98 0.66 3 1 C2.44658918 5.44705124 1.34974316 8.85654059 -0.75 12.8125 C-1.23984375 13.76769531 -1.7296875 14.72289063 -2.234375 15.70703125 C-4 18 -4 18 -6.578125 18.88671875 C-9 19 -9 19 -11 18 C-11 17.34 -11 16.68 -11 16 C-10.41734375 15.81695312 -9.8346875 15.63390625 -9.234375 15.4453125 C-5.97978853 13.340073 -4.8241753 10.28683917 -3.25 6.875 C-2.93417969 6.21628906 -2.61835938 5.55757813 -2.29296875 4.87890625 C-1.51766255 3.25781147 -0.75734314 1.62956416 0 0 Z " fill="#FED3A6" transform="translate(28,74)"/>
<path d="M0 0 C1.32 0.33 2.64 0.66 4 1 C4 6.28 4 11.56 4 17 C2.68 17.33 1.36 17.66 0 18 C0 12.06 0 6.12 0 0 Z " fill="#FED2A5" transform="translate(47,25)"/>
<path d="M0 0 C0.33 0.66 0.66 1.32 1 2 C-8.3352222 5.13506713 -16.12277749 6.59066447 -26 6 C-26 5.67 -26 5.34 -26 5 C-24.62328125 4.72736328 -24.62328125 4.72736328 -23.21875 4.44921875 C-15.15202834 2.85163043 -15.15202834 2.85163043 -7.375 0.25 C-3.98225886 -1.00657079 -3.20879615 -1.21853018 0 0 Z " fill="#A5E9A1" transform="translate(87,118)"/>
<path d="M0 0 C0.99 0.33 1.98 0.66 3 1 C2.51675181 6.15464734 -0.18610761 9.81550319 -3 14 C-5.4375 13.625 -5.4375 13.625 -8 13 C-8.33 12.34 -8.66 11.68 -9 11 C-8.39671875 10.76539062 -7.7934375 10.53078125 -7.171875 10.2890625 C-4.46867073 8.6846427 -3.67684104 7.14941313 -2.25 4.375 C-1.82203125 3.55773437 -1.3940625 2.74046875 -0.953125 1.8984375 C-0.63859375 1.27195312 -0.3240625 0.64546875 0 0 Z " fill="#FED2A5" transform="translate(18,75)"/>
<path d="M0 0 C2.35043607 1.98070455 4.67790392 3.98619077 7 6 C7.804375 6.680625 8.60875 7.36125 9.4375 8.0625 C11 10 11 10 11.25 12.75 C11.1675 13.4925 11.085 14.235 11 15 C10.54109375 14.60167969 10.0821875 14.20335938 9.609375 13.79296875 C8.68898438 12.99826172 8.68898438 12.99826172 7.75 12.1875 C7.11449219 11.63449219 6.47898437 11.08148438 5.82421875 10.51171875 C3.96900393 8.90257995 3.96900393 8.90257995 1.5625 7.5 C0 6 0 6 -0.25 2.8125 C-0.1675 1.884375 -0.085 0.95625 0 0 Z " fill="#FEBC85" transform="translate(76,90)"/>
<path d="M0 0 C3.82964655 1.56022637 6.32190489 3.87555571 9 7 C9 8.32 9 9.64 9 11 C5.54164207 10.71180351 4.21619267 10.21034962 1.6875 7.75 C-0.12328851 4.7990854 -0.38684492 3.38489309 0 0 Z " fill="#FEB886" transform="translate(71,98)"/>
<path d="M0 0 C3.77800868 0.53971553 5.71576111 1.95434815 8 5 C7.75 7.75 7.75 7.75 7 10 C4.50175965 8.5023304 2.13995327 6.98441782 0 5 C-0.4375 2.1875 -0.4375 2.1875 0 0 Z " fill="#FEBA84" transform="translate(79,82)"/>
<path d="M0 0 C3.125 0.375 3.125 0.375 6 1 C5.01 1.495 5.01 1.495 4 2 C4 3.65 4 5.3 4 7 C2.02 7.99 2.02 7.99 0 9 C-0.66 6.69 -1.32 4.38 -2 2 C-1.34 1.34 -0.68 0.68 0 0 Z " fill="#F5A96C" transform="translate(96,91)"/>
<path d="M0 0 C1.79323253 0.28187936 3.58457126 0.5758281 5.375 0.875 C6.37273438 1.03742188 7.37046875 1.19984375 8.3984375 1.3671875 C11 2 11 2 13 4 C6.07 3.505 6.07 3.505 -1 3 C-0.67 2.01 -0.34 1.02 0 0 Z " fill="#ACEBA6" transform="translate(46,108)"/>
<path d="M0 0 C1.65 0 3.3 0 5 0 C5.66 1.32 6.32 2.64 7 4 C5.68 4 4.36 4 3 4 C1.25 2 1.25 2 0 0 Z " fill="#FFC085" transform="translate(86,79)"/>
<path d="M0 0 C2.97 0.495 2.97 0.495 6 1 C5.34 2.32 4.68 3.64 4 5 C3.34 5 2.68 5 2 5 C1.34 3.35 0.68 1.7 0 0 Z " fill="#F6AA6D" transform="translate(100,87)"/>
</svg>
